<svg width="639" height="779" viewBox="0 0 639 779" fill="none" xmlns="http://www.w3.org/2000/svg">
<g clip-path="url(#clip0)">
<path d="M300.167 599.999L300.166 597.999C304.143 597.998 308.179 597.916 312.165 597.757L312.245 599.755C308.233 599.916 304.169 599.999 300.167 599.999ZM288.091 599.768C284.093 599.612 280.037 599.372 276.035 599.057L276.192 597.063C280.168 597.377 284.198 597.615 288.169 597.77L288.091 599.768ZM324.302 599.031L324.143 597.037C328.111 596.719 332.128 596.316 336.08 595.838L336.32 597.825C332.341 598.305 328.298 598.711 324.302 599.031V599.031ZM264.015 597.865C260.027 597.387 256.002 596.824 252.052 596.19L252.37 594.215C256.293 594.845 260.291 595.405 264.252 595.878L264.015 597.865ZM348.28 596.136L347.96 594.162C351.883 593.528 355.854 592.802 359.764 592.007L360.162 593.966C356.227 594.768 352.229 595.498 348.28 596.136V596.136ZM240.167 594.034C236.231 593.237 232.266 592.349 228.379 591.398L228.854 589.455C232.715 590.401 236.655 591.282 240.564 592.073L240.167 594.034ZM371.948 591.317L371.47 589.375C375.342 588.422 379.242 587.378 383.06 586.272L383.617 588.194C379.772 589.307 375.846 590.358 371.948 591.317V591.317ZM216.707 588.287C212.85 587.173 208.969 585.968 205.17 584.705L205.802 582.806C209.575 584.062 213.431 585.259 217.261 586.365L216.707 588.287ZM395.148 584.597L394.514 582.701C398.29 581.439 402.091 580.082 405.815 578.667L406.526 580.537C402.777 581.961 398.949 583.328 395.148 584.597V584.597ZM193.758 580.645C190.006 579.223 186.227 577.704 182.524 576.126L183.308 574.287C186.985 575.853 190.74 577.363 194.467 578.774L193.758 580.645ZM417.698 576.033L416.913 574.193C420.569 572.631 424.24 570.976 427.823 569.272L428.682 571.079C425.075 572.793 421.378 574.461 417.698 576.033V576.033ZM171.486 571.158C167.853 569.433 164.211 567.613 160.661 565.747L161.592 563.977C165.118 565.83 168.735 567.638 172.343 569.351L171.486 571.158ZM439.462 565.683L438.531 563.914C442.053 562.06 445.582 560.112 449.017 558.124L450.019 559.855C446.56 561.856 443.008 563.817 439.462 565.683V565.683ZM150.067 559.904C146.582 557.889 143.101 555.782 139.721 553.64L140.791 551.951C144.148 554.078 147.606 556.171 151.068 558.173L150.067 559.904ZM460.336 553.605L459.266 551.915C462.619 549.791 465.981 547.566 469.259 545.299L470.396 546.944C467.096 549.226 463.711 551.467 460.336 553.605L460.336 553.605ZM129.637 546.967C126.33 544.682 123.031 542.303 119.832 539.896L121.034 538.298C124.212 540.689 127.489 543.052 130.774 545.323L129.637 546.967ZM480.184 539.883L478.981 538.286C482.152 535.901 485.327 533.412 488.417 530.886L489.683 532.435C486.572 534.977 483.375 537.483 480.184 539.883V539.883ZM110.32 532.437C107.215 529.9 104.119 527.265 101.118 524.605L102.444 523.109C105.426 525.751 108.501 528.369 111.586 530.888L110.32 532.437ZM498.878 524.61L497.552 523.114C500.532 520.473 503.499 517.736 506.37 514.979L507.754 516.422C504.865 519.197 501.878 521.952 498.878 524.61L498.878 524.61ZM92.2373 516.414C89.3526 513.642 86.4781 510.769 83.6943 507.874L85.1357 506.488C87.9014 509.364 90.7568 512.218 93.623 514.97L92.2373 516.414ZM516.298 507.882L514.857 506.496C517.614 503.628 520.353 500.663 523 497.679L524.496 499.007C521.832 502.009 519.074 504.996 516.298 507.882V507.882ZM75.501 499.004C72.8345 495.998 70.2002 492.905 67.6704 489.811L69.2192 488.545C71.7314 491.619 74.3486 494.691 76.9971 497.675L75.501 499.004ZM532.333 489.809L530.784 488.544C533.311 485.454 535.805 482.276 538.198 479.099L539.795 480.302C537.387 483.501 534.875 486.699 532.333 489.809V489.809ZM60.2163 480.317C57.8061 477.117 55.4287 473.826 53.1504 470.534L54.7949 469.395C57.0581 472.666 59.4194 475.935 61.8139 479.114L60.2163 480.317ZM546.873 470.5L545.228 469.364C547.5 466.079 549.732 462.709 551.862 459.35L553.551 460.42C551.407 463.802 549.16 467.194 546.873 470.5ZM46.4839 460.477C44.3408 457.098 42.2363 453.628 40.2285 450.164L41.959 449.162C43.9532 452.603 46.044 456.049 48.1724 459.406L46.4839 460.477ZM559.822 450.078L558.091 449.076C560.093 445.616 562.047 442.076 563.9 438.555L565.669 439.487C563.805 443.031 561.837 446.594 559.822 450.078V450.078ZM34.3955 439.608C32.5322 436.07 30.7148 432.444 28.9941 428.831L30.7998 427.971C32.5093 431.56 34.3144 435.162 36.165 438.676L34.3955 439.608ZM571.086 428.666L569.28 427.806C570.992 424.205 572.655 420.517 574.221 416.845L576.061 417.63C574.484 421.327 572.81 425.04 571.086 428.666ZM24.0337 417.85C22.4585 414.166 20.9409 410.409 19.5225 406.68L21.3916 405.969C22.8008 409.671 24.3081 413.405 25.8726 417.063L24.0337 417.85ZM580.586 406.398L578.716 405.689C580.134 401.948 581.494 398.134 582.754 394.356L584.651 394.989C583.382 398.793 582.014 402.631 580.586 406.398V406.398ZM15.4561 395.305C14.1826 391.503 12.9707 387.624 11.854 383.775L13.7749 383.218C14.8843 387.041 16.0879 390.894 17.3525 394.67L15.4561 395.305ZM588.241 383.453L586.319 382.898C587.422 379.082 588.464 375.182 589.417 371.306L591.358 371.783C590.4 375.685 589.351 379.612 588.241 383.453V383.453ZM8.72318 372.108C7.76224 368.213 6.86915 364.25 6.06738 360.325L8.0274 359.924C8.8233 363.823 9.71051 367.761 10.6646 371.629L8.72318 372.108ZM594 359.998L592.04 359.599C592.831 355.704 593.553 351.732 594.188 347.795L596.163 348.114C595.524 352.077 594.796 356.075 594 359.998ZM3.89111 348.443C3.25 344.495 2.67969 340.471 2.19629 336.484L4.18164 336.244C4.66211 340.205 5.22852 344.201 5.86572 348.123L3.89111 348.443ZM597.844 336.15L595.858 335.912C596.334 331.953 596.735 327.936 597.049 323.974L599.043 324.132C598.726 328.121 598.323 332.165 597.844 336.15V336.15ZM0.983887 324.467C0.661127 320.473 0.415041 316.416 0.252441 312.41L2.25049 312.329C2.41211 316.308 2.65674 320.338 2.97705 324.306L0.983887 324.467ZM599.762 312.076L597.764 311.997C597.92 308.012 598 303.976 598 300L598 299.338H600L600 299.996C600 304.001 599.92 308.064 599.762 312.076ZM2 300.332H0L0.000488281 299.996C0.000488281 296.095 0.0761947 292.144 0.226105 288.257L2.22409 288.334C2.07565 292.195 2.00046 296.12 2.00046 300L2 300.332ZM597.736 287.344C597.571 283.373 597.323 279.343 596.997 275.368L598.991 275.205C599.318 279.207 599.568 283.263 599.734 287.261L597.736 287.344ZM2.9248 276.356L0.930664 276.2C1.24512 272.195 1.64453 268.151 2.11719 264.18L4.10352 264.416C3.63379 268.361 3.2373 272.379 2.9248 276.356ZM595.78 263.431C595.297 259.487 594.727 255.491 594.083 251.554L596.057 251.231C596.705 255.194 597.28 259.217 597.764 263.189L595.78 263.431ZM5.75983 252.533L3.78522 252.217C4.41901 248.257 5.14215 244.257 5.93561 240.331L7.8956 240.726C7.10792 244.627 6.3896 248.599 5.75977 252.533L5.75983 252.533ZM591.907 239.754C591.104 235.846 590.212 231.91 589.256 228.053L591.198 227.571C592.161 231.454 593.058 235.418 593.866 239.352L591.907 239.754ZM10.5063 229.016L8.56348 228.541C9.51465 224.648 10.5596 220.721 11.6689 216.866L13.5908 217.419C12.4888 221.248 11.4512 225.149 10.5063 229.016ZM586.134 216.468C585.021 212.648 583.814 208.796 582.544 205.019L584.441 204.382C585.718 208.185 586.934 212.063 588.054 215.908L586.134 216.468ZM17.1426 205.959L15.2446 205.328C16.5102 201.52 17.8735 197.68 19.2969 193.914L21.1679 194.621C19.7539 198.362 18.3994 202.176 17.1426 205.959ZM578.492 193.725C577.071 190.005 575.559 186.274 573.999 182.635L575.836 181.847C577.408 185.51 578.93 189.266 580.361 193.011L578.492 193.725ZM25.6499 183.459L23.8091 182.676C25.3809 178.981 27.0508 175.267 28.772 171.636L30.5791 172.493C28.8691 176.099 27.2109 179.789 25.6499 183.459ZM569.059 171.732C567.347 168.147 565.539 164.547 563.683 161.033L565.451 160.099C567.32 163.637 569.141 167.261 570.864 170.871L569.059 171.732ZM35.9482 161.737L34.1768 160.809C36.041 157.255 38.0049 153.69 40.0132 150.211L41.7456 151.211C39.7505 154.666 37.7998 158.208 35.9482 161.737ZM557.876 150.557C555.876 147.114 553.783 143.669 551.652 140.318L553.339 139.245C555.485 142.619 557.592 146.086 559.606 149.552L557.876 150.557ZM47.9619 140.93L46.2715 139.861C48.417 136.469 50.6607 133.075 52.9395 129.773L54.585 130.91C52.3213 134.189 50.0933 137.56 47.9619 140.93ZM545.018 130.335C542.75 127.066 540.384 123.799 537.989 120.625L539.584 119.42C541.997 122.615 544.377 125.904 546.661 129.196L545.018 130.335ZM61.6045 121.166L60.0059 119.964C62.416 116.756 64.9233 113.555 67.458 110.449L69.0078 111.713C66.4898 114.799 63.999 117.979 61.6045 121.166V121.166ZM530.574 111.201C528.051 108.124 525.43 105.055 522.786 102.08L524.28 100.751C526.943 103.746 529.581 106.835 532.121 109.934L530.574 111.201ZM76.7827 102.567L75.2857 101.242C77.9409 98.2417 80.6953 95.2525 83.4727 92.357L84.916 93.7417C82.1572 96.6177 79.4209 99.5874 76.7827 102.567L76.7827 102.567ZM514.637 93.2749C511.87 90.4034 509.011 87.5528 506.14 84.8018L507.524 83.3575C510.414 86.127 513.292 88.9966 516.077 91.8872L514.637 93.2749ZM93.3936 85.25L92.0069 83.8086C94.8926 81.0317 97.8765 78.2739 100.875 75.6109L102.203 77.106C99.2241 79.7515 96.2603 82.4917 93.3936 85.25ZM497.311 76.6734C494.323 74.0313 491.244 71.417 488.161 68.9038L489.424 67.3535C492.528 69.8838 495.628 72.5151 498.635 75.1753L497.311 76.6734ZM111.329 69.3228L110.061 67.7759C113.164 65.2344 116.357 62.7251 119.552 60.3169L120.756 61.9136C117.583 64.3057 114.411 66.7988 111.329 69.3228ZM478.703 61.5059C475.512 59.1113 472.232 56.7515 468.956 54.4917L470.09 52.8452C473.389 55.1201 476.691 57.4956 479.904 59.9062L478.703 61.5059ZM130.472 54.8877L129.332 53.2441C132.629 50.9595 136.011 48.7149 139.385 46.5723L140.457 48.2607C137.106 50.3887 133.746 52.6182 130.472 54.8877H130.472ZM458.931 47.8731C455.559 45.7432 452.099 43.6538 448.646 41.6631L449.646 39.9306C453.121 41.9345 456.604 44.0381 459.999 46.1821L458.931 47.8731ZM150.699 42.0425L149.695 40.312C153.153 38.3066 156.703 36.3418 160.245 34.4732L161.179 36.2417C157.66 38.0982 154.134 40.0498 150.699 42.0425ZM438.118 35.8711C434.586 34.0205 430.966 32.2163 427.36 30.5088L428.215 28.7012C431.846 30.4199 435.491 32.2363 439.045 34.0996L438.118 35.8711ZM171.88 30.8711L171.019 29.0654C174.626 27.3462 178.319 25.6753 181.999 24.0991L182.786 25.9375C179.131 27.5029 175.462 29.1626 171.88 30.8711L171.88 30.8711ZM416.39 25.5855C412.714 24.0245 408.958 22.5191 405.226 21.1099L405.933 19.2388C409.69 20.6573 413.472 22.1734 417.171 23.7447L416.39 25.5855ZM193.878 21.4502L193.166 19.5811C196.908 18.1543 200.734 16.7842 204.538 15.5083L205.174 17.4048C201.396 18.6719 197.596 20.0332 193.878 21.4502ZM393.885 17.0903C390.106 15.8369 386.25 14.644 382.422 13.5449L382.975 11.6231C386.828 12.7295 390.709 13.9302 394.514 15.1919L393.885 17.0903ZM216.625 13.8198L216.067 11.8999C219.913 10.7808 223.838 9.72511 227.732 8.76173L228.212 10.7031C224.344 11.6602 220.446 12.709 216.625 13.8198V13.8198ZM370.825 10.4678C366.964 9.52589 363.023 8.64943 359.113 7.86278L359.507 5.90185C363.444 6.69385 367.411 7.57665 371.299 8.52441L370.825 10.4678ZM239.915 8.06007L239.514 6.10107C243.435 5.29833 247.432 4.56396 251.394 3.91796L251.716 5.89159C247.78 6.5337 243.81 7.26319 239.915 8.06007ZM347.305 5.7339C343.372 5.1069 339.374 4.55128 335.42 4.08351L335.656 2.09718C339.635 2.56837 343.661 3.12745 347.62 3.75929L347.305 5.7339ZM263.594 4.20118L263.352 2.21583C267.331 1.73146 271.374 1.32083 275.369 0.99659L275.531 2.98976C271.562 3.31248 267.546 3.71974 263.594 4.20118ZM323.48 2.91163C319.515 2.60255 315.485 2.36915 311.501 2.21827L311.578 0.219269C315.587 0.371609 319.644 0.606481 323.635 0.917511L323.48 2.91163ZM287.508 2.25685L287.426 0.25885C291.425 0.0938501 295.488 0.00685104 299.502 6.10352e-05L299.505 2.00006C295.518 2.00685 291.481 2.09327 287.508 2.25685V2.25685Z" fill="#3F3D56"/>
<path d="M638.976 205.041V150.601C622.064 146.717 606.143 139.361 592.224 129C578.304 118.639 566.69 105.499 558.117 90.4122L558.115 90.4132C554.003 93.4628 549.016 95.1041 543.895 95.0932H500.667C512.202 123.843 531.019 149.097 555.268 168.374C579.517 187.651 608.365 200.287 638.976 205.041Z" fill="#3F3D56"/>
<path d="M638.975 147.481V95.1832C638.977 91.3575 638.224 87.569 636.76 84.0343C635.297 80.4995 633.151 77.2878 630.446 74.5826C627.741 71.8774 624.529 69.7317 620.994 68.2682C617.46 66.8047 613.671 66.0521 609.845 66.0532H567.875V71.1032C567.88 74.3421 567.226 77.5482 565.954 80.527C564.683 83.5057 562.819 86.1951 560.477 88.4321C568.769 103.166 580.026 116.021 593.537 126.184C607.048 136.347 622.52 143.599 638.975 147.481V147.481Z" fill="#3F3D56"/>
<path d="M437.087 95.0932H410.055C403.694 95.0913 397.595 92.5629 393.098 88.064C388.601 83.5652 386.075 77.4642 386.075 71.1032V66.0532H346.695C342.87 66.0529 339.082 66.8061 335.548 68.2699C332.013 69.7337 328.802 71.8794 326.097 74.5844C323.392 77.2895 321.246 80.5009 319.782 84.0352C318.318 87.5696 317.565 91.3577 317.565 95.1832V743.383C317.561 747.209 318.312 750.998 319.775 754.533C321.238 758.067 323.384 761.279 326.09 763.983C328.796 766.687 332.009 768.831 335.545 770.291C339.081 771.752 342.87 772.5 346.695 772.493H609.845C611.046 772.496 612.245 772.422 613.435 772.273C620.481 771.395 626.963 767.975 631.666 762.655C636.368 757.336 638.968 750.483 638.975 743.383V266.211C543.266 255.121 463.517 186.832 437.087 95.0932Z" fill="#3F3D56"/>
<path d="M497.386 95.0932H440.246C466.547 185.132 544.926 252.121 638.975 263.161V208.141C607.546 203.336 577.928 190.366 553.082 170.528C528.235 150.69 509.031 124.679 497.386 95.0932V95.0932Z" fill="#3F3D56"/>
<path opacity="0.1" d="M412.854 762.472C413.579 761.752 430.782 744.33 445.365 702.993C458.742 665.067 472.242 598.931 460.577 499.231C438.477 310.355 551.805 189.984 552.954 188.79L549.599 185.568C549.308 185.871 520.17 216.501 494.246 270.274C459.929 341.579 446.648 421.188 455.958 499.772C478.02 688.325 410.26 758.49 409.573 759.178L412.854 762.472Z" fill="black"/>
<path opacity="0.1" d="M587.753 185.625C604.444 185.625 617.975 172.094 617.975 155.402C617.975 138.711 604.444 125.18 587.753 125.18C571.061 125.18 557.53 138.711 557.53 155.402C557.53 172.094 571.061 185.625 587.753 185.625Z" fill="black"/>
<path opacity="0.1" d="M468.688 271.422C485.379 271.422 498.91 257.891 498.91 241.199C498.91 224.508 485.379 210.977 468.688 210.977C451.997 210.977 438.466 224.508 438.466 241.199C438.466 257.891 451.997 271.422 468.688 271.422Z" fill="black"/>
<path opacity="0.1" d="M514.279 359.132C530.97 359.132 544.501 345.601 544.501 328.909C544.501 312.218 530.97 298.687 514.279 298.687C497.588 298.687 484.057 312.218 484.057 328.909C484.057 345.601 497.588 359.132 514.279 359.132Z" fill="black"/>
<path opacity="0.1" d="M422.603 401.361C439.294 401.361 452.825 387.83 452.825 371.139C452.825 354.448 439.294 340.917 422.603 340.917C405.912 340.917 392.381 354.448 392.381 371.139C392.381 387.83 405.912 401.361 422.603 401.361Z" fill="black"/>
<path opacity="0.1" d="M498.814 520.479C515.505 520.479 529.036 506.948 529.036 490.257C529.036 473.565 515.505 460.034 498.814 460.034C482.123 460.034 468.592 473.565 468.592 490.257C468.592 506.948 482.123 520.479 498.814 520.479Z" fill="black"/>
<path opacity="0.1" d="M394.853 759.222C394.853 759.222 441.859 694.121 367.014 618.412L394.853 759.222Z" fill="black"/>
<path opacity="0.1" d="M431.281 766.728C431.281 766.728 463.408 693.137 566.666 719.047L431.281 766.728Z" fill="black"/>
<path d="M605.73 505.935H351.73V555.935H605.73V505.935Z" fill="#5146C6"/>
<path d="M429.307 399.963C419.121 384.82 414.697 366.529 416.84 348.405C418.983 330.281 427.55 313.526 440.987 301.176C454.424 288.827 471.842 281.702 490.081 281.093C508.321 280.484 526.175 286.432 540.406 297.858C554.636 309.284 564.301 325.431 567.647 343.372C570.994 361.313 567.8 379.858 558.646 395.646C549.491 411.434 534.982 423.418 517.749 429.426C500.516 435.434 481.701 435.067 464.716 428.392C463.614 432.323 461.556 435.919 458.724 438.859C455.892 441.798 452.376 443.99 448.489 445.237C444.602 446.485 440.467 446.749 436.454 446.006C432.44 445.263 428.673 443.537 425.49 440.982C422.307 438.426 419.808 435.121 418.216 431.363C416.623 427.604 415.988 423.51 416.366 419.445C416.744 415.381 418.124 411.474 420.383 408.074C422.641 404.674 425.708 401.887 429.307 399.963V399.963Z" fill="#F2F2F2"/>
<path d="M508.803 330.071C506.987 329.023 500.102 337.435 492.503 349.678C484.904 337.435 478.02 329.023 476.203 330.071C474.185 331.237 479.151 343.656 487.404 358.304C479.151 372.951 474.185 385.371 476.203 386.536C478.02 387.585 484.904 379.173 492.503 366.93C500.102 379.173 506.987 387.585 508.803 386.536C510.821 385.371 505.855 372.951 497.603 358.304C505.855 343.656 510.821 331.237 508.803 330.071Z" fill="#5146C6"/>
<path d="M143.154 459.653C143.154 459.653 135.019 494.516 141.992 494.516C148.964 494.516 162.909 478.246 162.909 478.246V468.95L143.154 459.653Z" fill="#A0616A"/>
<path d="M160.004 428.858L139.086 461.396H154.193L160.004 428.858Z" fill="#D0CDE1"/>
<path d="M175.111 712.406H147.221V735.648H175.111V712.406Z" fill="#A0616A"/>
<path d="M236.701 708.92L242.512 735.648L271.564 728.675L264.591 705.434L236.701 708.92Z" fill="#A0616A"/>
<path d="M149.545 468.369C149.545 468.369 140.248 473.017 139.086 493.935C137.924 514.852 142.572 569.47 142.572 569.47C142.572 569.47 137.924 593.874 142.572 615.953C147.221 638.033 137.924 718.217 143.734 718.217C149.545 718.217 179.759 721.703 180.921 718.217C182.083 714.73 183.245 662.437 183.245 662.437C183.245 662.437 192.542 635.709 183.245 619.44C183.245 619.44 204.163 636.871 204.163 641.519C204.163 646.167 226.242 718.217 236.701 719.379C247.16 720.541 276.212 718.217 270.401 707.758C264.591 697.299 250.646 649.654 250.646 649.654C250.646 649.654 240.187 614.791 221.594 599.684L230.891 525.311C230.891 525.311 250.646 475.341 239.025 468.369C227.404 461.396 149.545 468.369 149.545 468.369Z" fill="#2F2E41"/>
<path d="M184.408 278.949C201.094 278.949 214.622 265.422 214.622 248.735C214.622 232.048 201.094 218.521 184.408 218.521C167.721 218.521 154.193 232.048 154.193 248.735C154.193 265.422 167.721 278.949 184.408 278.949Z" fill="#A0616A"/>
<path d="M169.301 267.328C169.301 267.328 180.922 305.677 177.435 310.325C173.949 314.974 214.622 284.759 214.622 284.759C214.622 284.759 199.515 274.301 205.325 259.194L169.301 267.328Z" fill="#A0616A"/>
<path d="M218.108 281.273C218.108 281.273 204.163 285.922 197.19 294.056C190.218 302.191 173.949 303.353 173.949 303.353C173.949 303.353 159.567 311.452 154.193 325.432C148.466 340.332 151.795 361.309 154.193 366.105C158.842 375.402 158.842 398.644 158.842 398.644L153.031 452.099C153.031 452.099 132.114 471.855 148.383 474.179C164.652 476.503 193.704 473.017 211.135 474.179C228.567 475.341 248.322 477.665 242.512 466.044C236.701 454.424 229.729 446.289 236.701 423.047C242.157 404.86 241.921 336.86 241.56 308.145C241.51 304.201 240.453 300.335 238.487 296.916C236.522 293.496 233.715 290.636 230.332 288.608L218.108 281.273Z" fill="#D0CDE1"/>
<path d="M172.787 459.072C172.787 459.072 167.5 470.713 166.976 477.665C162.909 531.702 192.542 477.665 192.542 477.665V468.369L172.787 459.072Z" fill="#A0616A"/>
<path d="M254.132 726.351C254.132 726.351 236.701 713.568 236.701 720.541C236.701 727.513 216.946 755.403 216.946 755.403C216.946 755.403 184.407 778.645 211.135 778.645C237.863 778.645 249.484 773.997 249.484 773.997L277.374 755.403C277.374 755.403 284.346 747.269 282.022 737.972C279.698 728.675 271.564 715.892 271.564 715.892C271.564 715.892 262.267 728.675 254.132 726.351Z" fill="#2F2E41"/>
<path d="M151.869 729.837C151.869 729.837 149.545 718.217 141.41 724.027C133.275 729.837 111.196 747.269 111.196 747.269C111.196 747.269 70.523 756.565 96.0888 768.186C121.655 779.807 179.759 763.538 179.759 763.538C179.759 763.538 182.083 726.351 179.759 727.513C177.435 728.675 153.031 732.162 151.869 729.837Z" fill="#2F2E41"/>
<path opacity="0.1" d="M201.258 317.879L204.744 388.766L170.963 457.185L165.233 455.005L200.096 391.09L201.258 317.879Z" fill="black"/>
<path d="M228.567 296.38L237.283 294.637C237.283 294.637 263.43 313.812 255.295 352.16C247.16 390.509 211.136 448.613 211.136 448.613C211.136 448.613 203.001 459.072 200.677 461.396C198.353 463.72 193.705 461.396 196.029 464.882C198.353 468.369 192.542 470.693 192.542 470.693C192.542 470.693 166.977 470.693 169.301 461.396C171.625 452.1 211.136 385.861 211.136 385.861L205.325 324.27C205.325 324.27 200.677 294.056 228.567 296.38Z" fill="#D0CDE1"/>
<path opacity="0.1" d="M239.607 403.873V395.738L200.096 460.815L239.607 403.873Z" fill="black"/>
<path d="M162.968 220.746L157.973 218.746C157.973 218.746 168.417 207.248 182.948 208.248L178.861 203.748C178.861 203.748 188.851 199.749 197.933 210.247C202.707 215.766 208.23 222.253 211.674 229.561H217.023L214.79 234.476L222.605 239.392L214.584 238.509C215.344 242.753 215.084 247.117 213.826 251.241L214.041 255.126C214.041 255.126 204.744 240.743 204.744 238.743V243.742C204.744 243.742 199.749 239.243 199.749 236.243L197.024 239.743L195.662 234.244L178.861 239.743L181.586 235.243L171.142 236.743L175.228 231.244C175.228 231.244 163.422 237.743 162.968 243.242C162.514 248.741 156.611 255.74 156.611 255.74L153.887 250.741C153.887 250.741 149.8 228.244 162.968 220.746Z" fill="#2F2E41"/>
</g>
<defs>
<clipPath id="clip0">
<rect width="638.975" height="778.645" fill="white"/>
</clipPath>
</defs>
</svg>
