<svg width="40" height="40" viewBox="0 0 200 200" fill="none" xmlns="http://www.w3.org/2000/svg">
<path d="M119.141 100C119.141 110.571 110.571 119.141 100 119.141C89.4287 119.141 80.8594 110.571 80.8594 100C80.8594 89.4287 89.4287 80.8594 100 80.8594C110.571 80.8594 119.141 89.4287 119.141 100Z" fill="#5146C6"/>
<path d="M144.763 66.1346C143.843 63.6414 142.375 61.3846 140.468 59.5322C138.616 57.6248 136.36 56.1569 133.866 55.2368C131.842 54.451 128.803 53.5156 123.204 53.2608C117.148 52.9846 115.332 52.9251 100 52.9251C84.6667 52.9251 82.8509 52.9831 76.7962 53.2593C71.1978 53.5156 68.1567 54.451 66.1349 55.2368C63.6401 56.1569 61.3833 57.6248 59.5324 59.5322C57.6251 61.3846 56.1572 63.6398 55.2355 66.1346C54.4497 68.158 53.5143 71.199 53.2595 76.7975C52.9833 82.8522 52.9238 84.668 52.9238 100.002C52.9238 115.334 52.9833 117.149 53.2595 123.206C53.5143 128.804 54.4497 131.844 55.2355 133.867C56.1572 136.362 57.6235 138.617 59.5309 140.469C61.3833 142.377 63.6385 143.845 66.1334 144.765C68.1567 145.552 71.1978 146.487 76.7962 146.742C82.8509 147.018 84.6652 147.076 99.9987 147.076C115.334 147.076 117.15 147.018 123.203 146.742C128.801 146.487 131.842 145.552 133.866 144.765C138.874 142.833 142.832 138.875 144.763 133.867C145.549 131.844 146.485 128.804 146.741 123.206C147.017 117.149 147.075 115.334 147.075 100.002C147.075 84.668 147.017 82.8522 146.741 76.7975C146.486 71.199 145.551 68.158 144.763 66.1346V66.1346ZM100 129.486C83.7145 129.486 70.5126 116.286 70.5126 100C70.5126 83.7143 83.7145 70.5139 100 70.5139C116.284 70.5139 129.486 83.7143 129.486 100C129.486 116.286 116.284 129.486 100 129.486ZM130.652 76.239C126.847 76.239 123.761 73.1537 123.761 69.3481C123.761 65.5426 126.847 62.4573 130.652 62.4573C134.458 62.4573 137.543 65.5426 137.543 69.3481C137.541 73.1537 134.458 76.239 130.652 76.239Z" fill="#5146C6"/>
<path d="M100 0C44.78 0 0 44.78 0 100C0 155.22 44.78 200 100 200C155.22 200 200 155.22 200 100C200 44.78 155.22 0 100 0ZM157.076 123.674C156.798 129.787 155.826 133.96 154.407 137.613C151.424 145.326 145.326 151.424 137.613 154.407C133.961 155.826 129.787 156.796 123.676 157.076C117.552 157.355 115.596 157.422 100.002 157.422C84.4055 157.422 82.4509 157.355 76.326 157.076C70.2148 156.796 66.04 155.826 62.3886 154.407C58.5556 152.965 55.0858 150.705 52.2171 147.783C49.2966 144.916 47.0367 141.444 45.5948 137.613C44.1757 133.961 43.2037 129.787 42.926 123.676C42.6437 117.551 42.5781 115.594 42.5781 100C42.5781 84.4055 42.6437 82.4493 42.9245 76.326C43.2022 70.2133 44.1727 66.04 45.5917 62.3871C47.0337 58.5556 49.295 55.0842 52.2171 52.2171C55.0842 49.295 58.5556 47.0352 62.3871 45.5933C66.04 44.1742 70.2133 43.2037 76.326 42.9245C82.4493 42.6453 84.4055 42.5781 100 42.5781C115.594 42.5781 117.551 42.6453 123.674 42.926C129.787 43.2037 133.96 44.1742 137.613 45.5917C141.444 47.0337 144.916 49.295 147.784 52.2171C150.705 55.0858 152.966 58.5556 154.407 62.3871C155.827 66.04 156.798 70.2133 157.077 76.326C157.356 82.4493 157.422 84.4055 157.422 100C157.422 115.594 157.356 117.551 157.076 123.674V123.674Z" fill="#5146C6"/>
</svg>
