<svg width="861" height="610" viewBox="0 0 861 610" fill="none" xmlns="http://www.w3.org/2000/svg">
<g clip-path="url(#clip0)">
<path d="M659.202 603.102C648.179 592.064 641.483 574.628 643.239 557.653C644.995 540.678 655.871 525.074 669.978 521.469C684.085 517.864 700.167 527.842 704.452 544.173C706.81 512.688 709.527 479.885 723.653 453.073C736.443 428.795 758.596 411.424 782.605 408.316C806.614 405.208 831.893 416.946 846.866 439.402C861.84 461.858 865.506 494.505 855.019 520.287C847.294 539.279 833.061 553.413 818.148 564.912C769.96 601.757 712.164 616.74 655.395 607.105L659.202 603.102Z" fill="#5146C6"/>
<path d="M823.124 417.597C803.314 436.718 785.14 458.104 768.865 481.445C743.396 517.848 722.785 558.663 707.752 602.467C706.652 605.662 711.031 607.053 712.119 603.893C736.715 532.702 775.982 469.955 826.326 421.391C828.587 419.21 825.367 415.433 823.124 417.597Z" fill="white"/>
<path d="M277.17 600.103C292.31 584.942 301.506 560.993 299.095 537.679C296.683 514.364 281.745 492.931 262.369 487.98C242.993 483.029 220.905 496.734 215.02 519.164C211.781 475.92 208.049 430.864 188.647 394.038C171.079 360.693 140.652 336.833 107.676 332.564C74.6993 328.296 39.9793 344.418 19.4131 375.261C-1.15304 406.105 -6.18859 450.945 8.21543 486.356C18.8264 512.442 38.3755 531.856 58.858 547.65C124.205 598.038 205.267 619.053 282.399 605.601" fill="#6C63FF"/>
<path d="M52.0228 345.311C79.2324 371.574 104.194 400.948 126.548 433.006C148.904 465.032 168.587 499.552 185.319 536.081C194.672 556.573 203.074 577.654 210.487 599.23C211.998 603.62 205.984 605.53 204.489 601.19C191.359 563.15 175.114 526.727 155.987 492.443C136.954 458.283 115.169 426.391 90.9383 397.216C77.2335 380.723 62.7739 365.135 47.6248 350.523C44.5196 347.527 48.9433 342.34 52.0228 345.311L52.0228 345.311Z" fill="white"/>
<path d="M618.04 608.665H256.815V169.464C256.815 76.0213 320.967 0 399.82 0H475.035C553.888 0 618.04 76.0213 618.04 169.464V608.665Z" fill="#F2F2F2"/>
<path d="M542.826 608.665H256.815V169.464C256.736 133.659 266.304 98.7588 284.126 69.8448C284.783 68.7837 285.438 67.7363 286.114 66.7004C294.734 53.3028 304.992 41.5038 316.55 31.6927C317.203 31.1298 317.858 30.5766 318.523 30.0235C328.194 22.0926 338.656 15.6092 349.67 10.7209C350.324 10.4272 350.99 10.1328 351.656 9.85051C361.617 5.63803 371.942 2.7525 382.442 1.24721C383.093 1.14183 383.761 1.05938 384.43 0.976919C394.662 -0.319536 404.981 -0.319536 415.213 0.976919C415.88 1.05938 416.548 1.14182 417.207 1.24833C427.704 2.75373 438.027 5.63891 447.985 9.85057C448.651 10.1329 449.317 10.4272 449.973 10.7216C460.851 15.5481 471.19 21.9348 480.758 29.7389C481.423 30.28 482.088 30.8332 482.744 31.3864C489.222 36.8664 495.307 42.9715 500.937 49.6393C505.452 54.9876 509.659 60.6886 513.53 66.7039C514.203 67.7364 514.859 68.7837 515.514 69.8431C533.336 98.7575 542.905 133.658 542.826 169.464V608.665Z" fill="#CCCCCC"/>
<path d="M519.569 412.227C528.314 412.227 535.403 403.826 535.403 393.462C535.403 383.099 528.314 374.698 519.569 374.698C510.824 374.698 503.734 383.099 503.734 393.462C503.734 403.826 510.824 412.227 519.569 412.227Z" fill="#6C63FF"/>
<path d="M588.448 595.51H576.315L570.542 540.052L588.45 540.053L588.448 595.51Z" fill="#FFB8B8"/>
<path d="M567.648 591.401H591.047V608.86H552.915C552.915 606.568 553.296 604.297 554.037 602.179C554.777 600.061 555.862 598.136 557.23 596.515C558.598 594.894 560.222 593.608 562.01 592.73C563.797 591.853 565.713 591.401 567.648 591.401V591.401Z" fill="#2F2E41"/>
<path d="M648.817 595.51H636.684L630.911 540.052L648.819 540.053L648.817 595.51Z" fill="#FFB8B8"/>
<path d="M628.017 591.401H651.416V608.86H613.284C613.284 606.568 613.665 604.297 614.406 602.179C615.146 600.061 616.231 598.136 617.599 596.515C618.967 594.894 620.592 593.608 622.379 592.73C624.167 591.853 626.082 591.401 628.017 591.401V591.401Z" fill="#2F2E41"/>
<path d="M527.583 397.18C526.71 395.656 526.13 393.924 525.883 392.105C525.636 390.287 525.729 388.426 526.154 386.655C526.58 384.883 527.328 383.244 528.346 381.852C529.364 380.46 530.627 379.35 532.047 378.6L573.291 243.888L593.586 257.013L546.494 385.748C547.4 388.657 547.374 391.859 546.421 394.747C545.468 397.635 543.654 400.009 541.323 401.418C538.992 402.827 536.306 403.174 533.773 402.393C531.241 401.611 529.038 399.757 527.583 397.18V397.18Z" fill="#FDA57D"/>
<path d="M642.619 422.493C641.27 421.577 640.108 420.321 639.213 418.815C638.319 417.309 637.713 415.589 637.44 413.776C637.168 411.962 637.233 410.1 637.633 408.32C638.033 406.541 638.758 404.886 639.756 403.474L626.979 260.972L650.075 262.223L655.385 402.392C657.276 404.536 658.437 407.427 658.649 410.518C658.861 413.609 658.109 416.684 656.536 419.162C654.962 421.64 652.676 423.347 650.111 423.961C647.546 424.575 644.88 424.052 642.619 422.493V422.493Z" fill="#FDA57D"/>
<path d="M605.774 218.936C619.198 218.936 630.081 206.04 630.081 190.132C630.081 174.223 619.198 161.327 605.774 161.327C592.349 161.327 581.467 174.223 581.467 190.132C581.467 206.04 592.349 218.936 605.774 218.936Z" fill="#FDA57D"/>
<path d="M642.464 390.083H569.184L569.272 389.408C569.403 388.398 582.332 288.035 572.797 255.201C571.84 251.975 571.924 248.443 573.033 245.285C574.142 242.127 576.197 239.568 578.803 238.098H578.803C592.433 230.492 618.595 221.127 640.677 243.855C643.926 247.255 646.464 251.504 648.088 256.266C649.713 261.028 650.381 266.173 650.038 271.293L642.464 390.083Z" fill="#6C63FF"/>
<path d="M583.257 302.867L550.266 294.935L565.73 251.508C566.656 247.302 568.951 243.703 572.113 241.499C575.275 239.296 579.045 238.669 582.597 239.755C586.149 240.842 589.192 243.553 591.059 247.295C592.925 251.037 593.464 255.503 592.555 259.715L583.257 302.867Z" fill="#6C63FF"/>
<path d="M625.512 317.594L623.529 263.716C622.024 253.587 626.917 244.013 634.442 242.448C641.969 240.889 649.318 247.913 650.829 258.116L658.284 308.46L625.512 317.594Z" fill="#6C63FF"/>
<path d="M640.026 383.633C651.817 436.849 653.103 504.509 649.922 578.312L634.088 575.966L605.388 435.235L589.553 578.312L571.74 577.139C566.418 499.702 561.236 433.223 569.76 389.497L640.026 383.633Z" fill="#2F2E41"/>
<path d="M621.79 212.392C617.255 218.116 608.834 215.044 608.243 207.224C608.196 206.617 608.2 206.006 608.253 205.399C608.558 201.935 610.247 198.791 609.842 195.133C609.751 194.223 609.464 193.356 609.011 192.613C605.397 186.879 596.915 195.178 593.505 189.987C591.413 186.804 593.872 181.793 592.267 178.235C590.149 173.54 583.876 175.856 579.942 173.285C575.565 170.424 575.827 162.466 578.708 157.625C582.222 151.722 588.383 148.572 594.467 148.118C600.551 147.664 606.593 149.613 612.273 152.236C618.726 155.217 625.126 159.336 629.097 166.06C633.927 174.238 634.392 185.233 631.976 194.795C630.507 200.612 625.492 207.718 621.79 212.392Z" fill="#72351C"/>
<path d="M831.292 609.419H100.636C100.324 609.418 100.025 609.271 99.8049 609.009C99.5846 608.747 99.4609 608.393 99.4609 608.023C99.4609 607.653 99.5846 607.299 99.8049 607.037C100.025 606.775 100.324 606.628 100.636 606.627H831.292C831.604 606.628 831.903 606.775 832.123 607.037C832.344 607.299 832.467 607.653 832.467 608.023C832.467 608.393 832.344 608.747 832.123 609.009C831.903 609.271 831.604 609.418 831.292 609.419V609.419Z" fill="#514BC0"/>
<path d="M464.148 481.42H335.493C333.799 481.431 332.17 480.645 330.964 479.234C329.758 477.824 329.074 475.904 329.061 473.896V133.596C329.074 131.588 329.758 129.668 330.964 128.258C332.17 126.847 333.799 126.061 335.493 126.072H464.148C465.843 126.061 467.472 126.847 468.678 128.258C469.884 129.668 470.568 131.588 470.581 133.596V473.896C470.568 475.904 469.884 477.824 468.678 479.234C467.472 480.645 465.843 481.431 464.148 481.42V481.42Z" fill="white"/>
<path d="M470.581 236.183H329.061V238.528H470.581V236.183Z" fill="#CCCCCC"/>
<path d="M471.076 370.007H329.555V372.353H471.076V370.007Z" fill="#CCCCCC"/>
<path d="M375.574 126.072H373.595V482.593H375.574V126.072Z" fill="#CCCCCC"/>
<path d="M425.057 126.072H423.078V482.593H425.057V126.072Z" fill="#CCCCCC"/>
</g>
<defs>
<clipPath id="clip0">
<rect width="861" height="610" fill="white"/>
</clipPath>
</defs>
</svg>
