<svg width="40" height="40" viewBox="0 0 200 200" fill="none" xmlns="http://www.w3.org/2000/svg">
<path d="M200 100C200 44.7656 155.234 0 100 0C44.7656 0 0 44.7656 0 100C0 155.234 44.7656 200 100 200C100.586 200 101.172 200 101.758 199.961V122.148H80.2734V97.1094H101.758V78.6719C101.758 57.3047 114.805 45.6641 133.867 45.6641C143.008 45.6641 150.859 46.3281 153.125 46.6406V68.9844H140C129.648 68.9844 127.617 73.9062 127.617 81.1328V97.0703H152.422L149.18 122.109H127.617V196.133C169.414 184.141 200 145.664 200 100V100Z" fill="#5146C6"/>
</svg>
