<svg width="151" height="31" viewBox="0 0 151 31" fill="none" xmlns="http://www.w3.org/2000/svg">
<path d="M23.6289 10.916C23.6289 12.0527 23.4121 13.0547 22.9785 13.9219C22.5566 14.7891 21.9824 15.5449 21.2559 16.1895C20.541 16.8223 19.7148 17.3555 18.7773 17.7891C17.8398 18.2109 16.8613 18.5508 15.8418 18.8086C14.8223 19.0664 13.7969 19.248 12.7656 19.3535C11.7461 19.459 10.7852 19.5117 9.88281 19.5117C9.19141 19.5117 8.50586 19.5 7.82617 19.4766C7.14648 19.4531 6.46094 19.3945 5.76953 19.3008L5.69922 27.1758L1.16406 27.2109C1.1875 23.0859 1.1582 18.9844 1.07617 14.9062C0.994141 10.8164 0.917969 6.70898 0.847656 2.58398C1.67969 2.41992 2.55859 2.28516 3.48438 2.17969C4.41016 2.07422 5.34766 1.99219 6.29688 1.93359C7.24609 1.86328 8.18945 1.81641 9.12695 1.79297C10.0645 1.76953 10.9609 1.75781 11.8164 1.75781C12.7539 1.75781 13.6973 1.83398 14.6465 1.98633C15.5957 2.13867 16.5039 2.37305 17.3711 2.68945C18.25 3.00586 19.0703 3.41016 19.832 3.90234C20.5938 4.39453 21.2559 4.98047 21.8184 5.66016C22.3809 6.33984 22.8203 7.11914 23.1367 7.99805C23.4648 8.86523 23.6289 9.83789 23.6289 10.916ZM9.12695 3.5332C8.5293 3.5332 7.92578 3.54492 7.31641 3.56836C6.71875 3.5918 6.12109 3.63867 5.52344 3.70898L5.80469 17.5605C6.35547 17.6426 6.91211 17.6895 7.47461 17.7012C8.03711 17.7129 8.61133 17.7188 9.19727 17.7188C9.98242 17.7188 10.7617 17.6719 11.5352 17.5781C12.3203 17.4844 13.0645 17.332 13.7676 17.1211C14.4707 16.8984 15.1211 16.6113 15.7188 16.2598C16.3164 15.8965 16.832 15.4512 17.2656 14.9238C17.7109 14.3848 18.0566 13.7637 18.3027 13.0605C18.5488 12.3457 18.6719 11.5195 18.6719 10.582C18.6719 9.71484 18.5371 8.94141 18.2676 8.26172C17.998 7.57031 17.6289 6.9668 17.1602 6.45117C16.7031 5.92383 16.1641 5.47852 15.543 5.11523C14.9219 4.74023 14.2598 4.43555 13.5566 4.20117C12.8535 3.9668 12.1211 3.79688 11.3594 3.69141C10.6094 3.58594 9.86523 3.5332 9.12695 3.5332ZM26.3455 18.216C26.3455 16.92 26.5615 15.72 26.9935 14.616C27.4255 13.512 28.0135 12.552 28.7575 11.736C29.5255 10.92 30.4375 10.284 31.4935 9.828C32.5495 9.372 33.6775 9.144 34.8775 9.144C36.1015 9.144 37.2295 9.372 38.2615 9.828C39.3175 10.284 40.2295 10.92 40.9975 11.736C41.7655 12.552 42.3655 13.512 42.7975 14.616C43.2295 15.72 43.4455 16.92 43.4455 18.216C43.4455 19.512 43.2175 20.724 42.7615 21.852C42.3295 22.98 41.7295 23.952 40.9615 24.768C40.2175 25.56 39.3175 26.196 38.2615 26.676C37.2055 27.132 36.0775 27.36 34.8775 27.36C33.6775 27.36 32.5495 27.132 31.4935 26.676C30.4615 26.196 29.5615 25.548 28.7935 24.732C28.0495 23.916 27.4495 22.956 26.9935 21.852C26.5615 20.724 26.3455 19.512 26.3455 18.216ZM34.8775 25.02C36.5815 25.02 37.9975 24.384 39.1255 23.112C40.2775 21.816 40.8535 20.196 40.8535 18.252C40.8535 16.308 40.2775 14.688 39.1255 13.392C37.9975 12.096 36.5815 11.448 34.8775 11.448C33.1735 11.448 31.7575 12.096 30.6295 13.392C29.5015 14.688 28.9375 16.308 28.9375 18.252C28.9375 20.196 29.5015 21.816 30.6295 23.112C31.7575 24.384 33.1735 25.02 34.8775 25.02ZM61.0146 27V24.66C60.3426 25.5 59.5266 26.148 58.5666 26.604C57.6066 27.036 56.5506 27.252 55.3986 27.252C54.2706 27.252 53.2026 27.024 52.1946 26.568C51.2106 26.088 50.3586 25.452 49.6386 24.66C48.9186 23.844 48.3426 22.884 47.9106 21.78C47.5026 20.676 47.2986 19.5 47.2986 18.252C47.2986 16.98 47.5026 15.792 47.9106 14.688C48.3426 13.584 48.9306 12.636 49.6746 11.844C50.4186 11.028 51.2946 10.392 52.3026 9.936C53.3106 9.456 54.3906 9.216 55.5426 9.216C56.6226 9.216 57.6306 9.432 58.5666 9.864C59.5026 10.272 60.3186 10.872 61.0146 11.664V1.26L63.6426 0.719999V27H61.0146ZM49.8906 18.216C49.8906 20.136 50.4786 21.744 51.6546 23.04C52.8306 24.312 54.2946 24.948 56.0466 24.948C57.0786 24.948 58.0266 24.744 58.8906 24.336C59.7546 23.928 60.4626 23.352 61.0146 22.608V13.896C60.4386 13.152 59.7066 12.576 58.8186 12.168C57.9546 11.736 57.0306 11.52 56.0466 11.52C54.2946 11.52 52.8306 12.156 51.6546 13.428C50.4786 14.7 49.8906 16.296 49.8906 18.216ZM77.0718 24.948C78.0318 24.948 78.9318 24.768 79.7718 24.408C80.6358 24.048 81.3678 23.532 81.9678 22.86L83.5878 24.48C82.7478 25.368 81.7398 26.064 80.5638 26.568C79.4118 27.072 78.1998 27.324 76.9277 27.324C75.7278 27.324 74.5878 27.096 73.5078 26.64C72.4518 26.16 71.5398 25.512 70.7718 24.696C70.0038 23.88 69.3918 22.92 68.9358 21.816C68.4798 20.688 68.2518 19.488 68.2518 18.216C68.2518 16.944 68.4678 15.756 68.8998 14.652C69.3558 13.548 69.9678 12.588 70.7358 11.772C71.5278 10.956 72.4518 10.32 73.5078 9.864C74.5638 9.384 75.7038 9.144 76.9277 9.144C78.2238 9.144 79.4598 9.384 80.6358 9.864C81.8118 10.344 82.8318 11.016 83.6958 11.88L82.0038 13.716C81.3798 13.044 80.6238 12.516 79.7358 12.132C78.8478 11.724 77.9478 11.52 77.0358 11.52C76.1718 11.52 75.3558 11.7 74.5878 12.06C73.8438 12.396 73.1958 12.864 72.6438 13.464C72.1158 14.064 71.6838 14.772 71.3478 15.588C71.0358 16.404 70.8798 17.28 70.8798 18.216C70.8798 20.112 71.4798 21.708 72.6798 23.004C73.8798 24.3 75.3438 24.948 77.0718 24.948ZM92.7962 27.324C90.9242 27.324 89.3882 26.832 88.1882 25.848C87.0122 24.84 86.4242 23.544 86.4242 21.96C86.4242 20.4 87.0242 19.14 88.2242 18.18C89.4482 17.22 91.0442 16.74 93.0122 16.74C94.0202 16.74 94.9682 16.86 95.8562 17.1C96.7682 17.316 97.6082 17.652 98.3762 18.108V15.696C98.3762 14.256 97.9922 13.176 97.2242 12.456C96.4562 11.712 95.3282 11.34 93.8402 11.34C93.0242 11.34 92.1842 11.46 91.3202 11.7C90.4802 11.94 89.5442 12.324 88.5122 12.852L87.5402 10.836C88.7402 10.26 89.8802 9.84 90.9602 9.576C92.0402 9.288 93.1082 9.144 94.1642 9.144C96.3242 9.144 97.9922 9.684 99.1682 10.764C100.368 11.82 100.968 13.344 100.968 15.336V27H98.3762V24.948C97.6082 25.74 96.7562 26.34 95.8202 26.748C94.8842 27.132 93.8762 27.324 92.7962 27.324ZM88.9442 21.888C88.9442 22.92 89.3522 23.748 90.1682 24.372C90.9842 24.996 92.0402 25.308 93.3362 25.308C94.3202 25.308 95.2202 25.14 96.0362 24.804C96.8762 24.468 97.6562 23.964 98.3762 23.292V19.908C97.6322 19.476 96.8642 19.164 96.0722 18.972C95.2802 18.756 94.3922 18.648 93.4082 18.648C92.0642 18.648 90.9842 18.948 90.1682 19.548C89.3522 20.148 88.9442 20.928 88.9442 21.888ZM104.617 24.732L106.021 23.004C107.053 23.772 108.013 24.336 108.901 24.696C109.813 25.032 110.737 25.2 111.673 25.2C112.945 25.2 114.001 24.9 114.841 24.3C115.681 23.7 116.101 22.944 116.101 22.032C116.101 21.312 115.849 20.748 115.345 20.34C114.841 19.932 114.037 19.62 112.933 19.404L110.053 18.9C108.349 18.588 107.089 18.06 106.273 17.316C105.481 16.572 105.085 15.564 105.085 14.292C105.085 12.78 105.673 11.544 106.849 10.584C108.049 9.624 109.573 9.144 111.421 9.144C112.621 9.144 113.761 9.324 114.841 9.684C115.921 10.044 117.013 10.596 118.117 11.34L116.821 13.176C115.909 12.528 114.997 12.06 114.085 11.772C113.173 11.46 112.249 11.304 111.313 11.304C110.161 11.304 109.237 11.556 108.541 12.06C107.845 12.564 107.497 13.248 107.497 14.112C107.497 14.832 107.713 15.384 108.145 15.768C108.601 16.152 109.393 16.44 110.521 16.632L113.473 17.172C115.225 17.484 116.509 18.024 117.325 18.792C118.165 19.56 118.585 20.592 118.585 21.888C118.585 23.4 117.925 24.684 116.605 25.74C115.309 26.796 113.689 27.324 111.745 27.324C110.305 27.324 108.973 27.108 107.749 26.676C106.525 26.22 105.481 25.572 104.617 24.732ZM124.323 23.04V11.592H120.687V9.432H124.323V4.608L126.951 3.996V9.432H131.991V11.592H126.951V22.356C126.951 23.292 127.143 23.964 127.527 24.372C127.935 24.78 128.595 24.984 129.507 24.984C129.963 24.984 130.371 24.948 130.731 24.876C131.091 24.804 131.511 24.684 131.991 24.516V26.856C131.511 27.024 131.007 27.144 130.479 27.216C129.951 27.288 129.435 27.324 128.931 27.324C127.419 27.324 126.267 26.964 125.475 26.244C124.707 25.5 124.323 24.432 124.323 23.04Z" fill="#fff"/>
<path d="M135.074 29.6719C134.723 29.8125 134.383 29.8711 134.055 29.8477C133.773 29.8242 133.48 29.7422 133.176 29.6016C132.871 29.4609 132.625 29.168 132.438 28.7227C133.258 27.1758 134.043 25.7344 134.793 24.3984C135.543 23.0391 136.199 21.8438 136.762 20.8125C137.418 19.6172 138.039 18.5273 138.625 17.543C138.602 17.4961 138.578 17.4492 138.555 17.4023C138.531 17.332 138.508 17.2617 138.484 17.1914C138.086 16.2773 137.652 15.1992 137.184 13.957C136.785 12.9023 136.293 11.625 135.707 10.125C135.121 8.60156 134.488 6.86719 133.809 4.92188C133.902 4.71094 134.02 4.52344 134.16 4.35938C134.301 4.19531 134.441 4.05469 134.582 3.9375C134.746 3.82031 134.91 3.70313 135.074 3.58594C135.238 3.53906 135.402 3.48047 135.566 3.41016C135.707 3.36328 135.848 3.32812 135.988 3.30469C136.129 3.25781 136.246 3.25781 136.34 3.30469C136.902 4.78125 137.441 6.16406 137.957 7.45312C138.473 8.71875 138.93 9.84375 139.328 10.8281C139.773 11.9766 140.207 13.043 140.629 14.0273C141.215 13.0664 141.836 12.0234 142.492 10.8984C143.055 9.96094 143.688 8.89453 144.391 7.69922C145.117 6.48047 145.855 5.22656 146.605 3.9375C146.793 3.82031 146.98 3.72656 147.168 3.65625C147.379 3.58594 147.578 3.52734 147.766 3.48047C147.977 3.43359 148.188 3.42188 148.398 3.44531C148.609 3.46875 148.82 3.50391 149.031 3.55078C149.219 3.59766 149.406 3.65625 149.594 3.72656C149.805 3.79688 150.004 3.90234 150.191 4.04297C148.926 6.03516 147.801 7.81641 146.816 9.38672C145.832 10.9336 145 12.2695 144.32 13.3945C143.523 14.6836 142.832 15.832 142.246 16.8398C142.199 16.9102 142.164 16.9805 142.141 17.0508C142.117 17.0977 142.082 17.1562 142.035 17.2266C142.715 18.7031 143.453 20.168 144.25 21.6211C144.93 22.8867 145.715 24.2461 146.605 25.6992C147.496 27.1523 148.434 28.5117 149.418 29.7773C149.137 29.9648 148.844 30.0938 148.539 30.1641C148.234 30.2344 147.953 30.2812 147.695 30.3047C147.414 30.3281 147.133 30.3281 146.852 30.3047C146.148 30.1875 145.539 29.8828 145.023 29.3906C144.508 28.8984 143.992 28.2422 143.477 27.4219C143.078 26.8125 142.574 25.9453 141.965 24.8203C141.379 23.6953 140.746 22.3828 140.066 20.8828C139.457 22.125 138.918 23.25 138.449 24.2578C138.004 25.2422 137.594 26.1094 137.219 26.8594C136.867 27.6094 136.516 28.2188 136.164 28.6875C135.836 29.1797 135.473 29.5078 135.074 29.6719Z" fill="#514BC0"/>
</svg>
